Coordinates

Units are S.I. units (second, meters, Newtons, ...)
If the header above contains a line with 'inDegrees', this indicates whether rotational values are in degrees (yes) or radians (no).

inDegrees=no
nColumns=21
nRows=12
DataType=double
version=3
OpenSimVersion=4.6-2026-03-31-d6972f9e6
endheader
time	/jointset/ground_pelvis/pelvis_tilt/value	/jointset/ground_pelvis/pelvis_list/value	/jointset/ground_pelvis/pelvis_rotation/value	/jointset/ground_pelvis/pelvis_tx/value	/jointset/ground_pelvis/pelvis_ty/value	/jointset/ground_pelvis/pelvis_tz/value	/jointset/hip_r/hip_flexion_r/value	/jointset/hip_r/hip_adduction_r/value	/jointset/hip_r/hip_rotation_r/value	/jointset/walker_knee_r/knee_angle_r/value	/jointset/patellofemoral_r/knee_angle_r_beta/value	/jointset/ankle_r/ankle_angle_r/value	/jointset/subtalar_r/subtalar_angle_r/value	/jointset/hip_l/hip_flexion_l/value	/jointset/hip_l/hip_adduction_l/value	/jointset/hip_l/hip_rotation_l/value	/jointset/walker_knee_l/knee_angle_l/value	/jointset/patellofemoral_l/knee_angle_l_beta/value	/jointset/ankle_l/ankle_angle_l/value	/jointset/subtalar_l/subtalar_angle_l/value
142.496	0.06042763960201033	-0.1033951875702561	1.438540270522952	0.8427496764069594	1.088301078016091	-0.9420149491607889	0.6325473273689232	0.1223541638773987	0.09179946094576794	0.9385417704943387	0.9385417701330295	-0.127071781353501	-0.4014646823072016	-0.3580857103516605	-0.02423367915036839	-0.08756903141329682	0.1845553837712837	0.1845553832580022	-0.458066993991486	-0.1940935358058824
142.5	0.0605585577024686	-0.1070762320069571	1.436849033888323	0.8428094947641528	1.089541487183741	-0.9427867284452778	0.6262497706283765	0.1229317905941038	0.09275796982211335	0.8926535063084311	0.8926535060288061	-0.1320394988483657	-0.3983375660306815	-0.3619386643660452	-0.024161629484726	-0.08925620678472407	0.1865837352526114	0.1865837348247078	-0.4651525447866632	-0.1971818004833566
142.504	0.06029333294199678	-0.11009896853151	1.435053722030798	0.8428814534184074	1.09062436886452	-0.9435393186473553	0.6188708306669281	0.1230566436412498	0.09394687595620264	0.8465825338214075	0.8465825336289781	-0.136870557401403	-0.3944500822917819	-0.3659058637755251	-0.02353889241543016	-0.09043996411712528	0.1899628663725919	0.1899628660375272	-0.4705540644605918	-0.202014340359604
142.508	0.05962521679787776	-0.1124442906849605	1.433173067928932	0.8429659119018941	1.091549452391278	-0.9442704544212931	0.610466923245886	0.1227209406954183	0.0953263388785877	0.8005039880619282	0.8005039879576044	-0.1415971750921363	-0.3897789438484383	-0.3699987587715025	-0.02237293768097753	-0.09111492534173735	0.1946955920497604	0.1946955918103402	-0.4743873955452897	-0.208488175759125
142.512	0.05855221546237941	-0.1141024544201271	1.431232149202708	0.8430625664031782	1.092317428046427	-0.9449778988746947	0.6011091763431041	0.1219187152805239	0.0968498663055061	0.754609876757253	0.7546098767375903	-0.1462577307958162	-0.3842999176665043	-0.3742143941459617	-0.02068012310400068	-0.09128109559135113	0.2007855188165802	0.2007855186720254	-0.476783438540252	-0.2164705986794213
142.516	0.05707813147160087	-0.1150734282120512	1.429261420648076	0.8431704517096684	1.092929860380258	-0.9456594444162648	0.5908831663609021	0.1206474378920763	0.09846522877301145	0.7091086017953625	0.7091086018531503	-0.1508940349211457	-0.3779906149242437	-0.3785353347183135	-0.01848624593899502	-0.09094446699174004	0.2082377989533494	0.2082377989008756	-0.4778847891237961	-0.2258029522886128
142.52	0.05521347860547481	-0.1153669921519165	1.427295543024981	0.843287965958424	1.093389073015732	-0.9463129184976348	0.5798882686105655	0.1189096664183654	0.1001156857937755	0.6642240821052166	0.6642240822302795	-0.1555481822916399	-0.3708339413612962	-0.3829300368108791	-0.01582682874791769	-0.09011754056431845	0.2170597415658579	0.2170597416023609	-0.4778421719999009	-0.2363051217892974
142.524	0.05297621208132312	-0.1150025587813532	1.425372046881279	0.8434129181914799	1.093698006957466	-0.9469361937785972	0.5682366146972538	0.1167146242748749	0.1017415021920722	0.6201944640948247	0.6201944642749788	-0.1602590989183018	-0.3628220423581082	-0.3873536917416497	-0.01274710514459757	-0.08881973659712521	0.227261205106247	0.2272612052297598	-0.4768107932341116	-0.2477805839135065
142.528	0.05039221590356528	-0.1140087057015118	1.423529866278485	0.8435425978299106	1.093860054919525	-0.9475272015365553	0.5560516713204254	0.1140796016234813	0.103281718624092	0.5772704165672002	0.5772704167893796	-0.1650589016210804	-0.3539605061177554	-0.3917495330987227	-0.009301674793850004	-0.08707767661394304	0.2388547209492685	0.2388547211599661	-0.4749467232743794	-0.2600218360943087
142.532	0.04749549355954471	-0.112422433092694	1.421807777017837	0.8436738644640084	1.093878874045011	-0.9480839460925728	0.5434664826059294	0.1110310772123006	0.1046761241097733	0.5357130179813364	0.5357130182328635	-0.1699691786297595	-0.3442725026325096	-0.3960505555781761	-0.005553807905670905	-0.08492533829648838	0.2518553370596172	0.2518553373602863	-0.4724033967485136	-0.2728160099491533
142.536	0.04432801965103354	-0.110288169142029	1.420242781177973	0.8438032559515839	1.093758180892723	-0.9486045176175908	0.5306216245708357	0.1076054696412349	0.1058673650719793	0.4957912438047382	0.4957912440745943	-0.1749973221713493	-0.3338025247218592	-0.4001815792914579	-0.001574394891205387	-0.08240408136881507	0.2662801839319717	0.2662801843280469	-0.4693283084214536	-0.2859504688873316
142.54	0.04093923807275707	-0.107656547007111	1.418868493100934	0.8439271120561886	1.093501535777718	-0.9490871013373858	0.5176629070274353	0.103849455097655	0.1068031033704801	0.4577790507409045	0.4577790510207645	-0.1801330958616218	-0.3226194454472784	-0.4040616018859816	0.002559433456664638	-0.07956253028314433	0.2821477602119678	0.2821477607112912	-0.4658599977850886	-0.2992182007340846
